# xmcd CD database file
#
# Track frame offsets:
#	150
#	22587
#	44275
#	61505
#	85695
#	101712
#	118930
#	143357
#	168730
#
# Disc length: 2568 seconds
#
# Revision: 0
# Processed by: cddbd v1.5.1PL0 Copyright (c) Steve Scherf et al.
# Submitted via: CDex 1.51
#
DISCID=650a0609
DTITLE=佐藤奈々子 - Fear And Loving
DYEAR=1995
DGENRE=JPop
TTITLE0=Wild Flower In My Heart
TTITLE1=Those Two People
TTITLE2=The Obscure Photos Of You
TTITLE3=Someday
TTITLE4=On The 4th Of July
TTITLE5=Fear And Loving
TTITLE6=The Diamond Of Winter
TTITLE7=Maternal Secret
TTITLE8=Strange Animal
EXTD=YEAR: 1995
EXTT0=
EXTT1=
EXTT2=
EXTT3=
EXTT4=
EXTT5=
EXTT6=
EXTT7=
EXTT8=
PLAYORDER=
